<svg width="45" height="39" viewBox="0 0 45 39" fill="none" xmlns="http://www.w3.org/2000/svg">
<path d="M22.7755 14.302C20.3531 14.302 18.3893 16.2657 18.3893 18.6882C18.3893 21.1106 20.353 23.0745 22.7755 23.0745C25.1979 23.0745 27.1618 21.1107 27.1618 18.6882C27.1618 16.2657 25.198 14.302 22.7755 14.302ZM22.7755 20.9857C21.5066 20.9857 20.4779 19.9571 20.4779 18.6881C20.4779 17.4192 21.5066 16.3906 22.7755 16.3906C24.0444 16.3906 25.0731 17.4192 25.0731 18.6881C25.0731 19.9571 24.0444 20.9857 22.7755 20.9857Z" fill="#A8A1BD" stroke="#A8A1BD" stroke-width="0.2"/>
<path d="M40.2685 4.27637L11.7581 1.03901C10.6516 0.881691 9.53054 1.20472 8.67739 1.92673C7.82435 2.58818 7.27754 3.56865 7.16311 4.64197L6.64099 8.92378H5.02215C2.72459 8.92378 1.00141 10.9602 1.00141 13.2578V34.6144C0.943542 36.8053 2.67271 38.6284 4.86374 38.6863C4.91651 38.6877 4.96938 38.688 5.02215 38.6873H33.6892C35.9867 38.6873 38.0754 36.912 38.0754 34.6144V33.7789C38.7877 33.6413 39.4635 33.3568 40.0597 32.9435C40.9057 32.2312 41.4474 31.2224 41.5739 30.1238L43.976 8.92378C44.2208 6.62091 42.5682 4.54932 40.2685 4.27637ZM35.9867 34.6144C35.9867 35.7632 34.838 36.5986 33.6892 36.5986H5.02215C3.98441 36.6291 3.11848 35.8126 3.08799 34.7748C3.08639 34.7213 3.08709 34.6679 3.09009 34.6144V30.7504L11.1837 24.7977C12.156 24.0512 13.5255 24.1175 14.4212 24.9543L20.1129 29.9671C20.9772 30.6928 22.0652 31.0985 23.1937 31.1159C24.076 31.1267 24.9439 30.8917 25.7002 30.437L35.9868 24.4843V34.6144H35.9867ZM35.9867 22.0301L24.6034 28.6617C23.626 29.2408 22.3887 29.1359 21.5226 28.4006L15.7788 23.3355C14.1326 21.921 11.7265 21.8342 9.98269 23.1267L3.09009 28.1395V13.2578C3.09009 12.109 3.87337 11.0125 5.02215 11.0125H33.6892C34.9165 11.0633 35.9077 12.032 35.9867 13.2578V22.0301ZM41.8893 8.64183C41.8886 8.64872 41.888 8.65572 41.8872 8.66262L39.433 29.8626C39.4372 30.4123 39.1865 30.933 38.7542 31.2725C38.5453 31.4814 38.0753 31.5858 38.0753 31.6903V13.2578C37.9929 10.8789 36.0687 8.97765 33.6891 8.92378H8.72956L9.19951 4.85086C9.30146 4.32344 9.57721 3.8455 9.98279 3.49319C10.4407 3.17656 10.9944 3.02894 11.5494 3.07541L40.0076 6.36505C41.1558 6.47409 41.9983 7.49344 41.8893 8.64183Z" fill="#A8A1BD" stroke="#A8A1BD" stroke-width="0.2"/>
</svg>
