<svg width="46" height="38" viewBox="0 0 46 38" fill="none" xmlns="http://www.w3.org/2000/svg">
<path d="M9.44942 28.2084C6.94935 28.7532 4.67741 29.7427 2.8206 31.1174C2.56619 31.3028 2.42609 31.6046 2.44575 31.9246C2.46541 32.2447 2.64163 32.5269 2.915 32.6788C8.58247 35.8567 16.9284 35.5538 22.4816 31.6918V36.9313C22.4816 37.2182 22.7144 37.451 23.0013 37.451C23.2882 37.451 23.521 37.2182 23.521 36.9313V31.692C29.0783 35.5568 37.4292 35.8551 43.0802 32.6788C43.3589 32.5234 43.5356 32.2383 43.5531 31.9152C43.5704 31.5951 43.427 31.2954 43.1783 31.12C41.3172 29.742 39.0457 28.752 36.5487 28.2076C40.1326 26.1741 43.0727 23.3485 44.8666 20.1624C45.0385 19.864 45.0446 19.5023 44.8831 19.1937C44.7211 18.8845 44.4182 18.6838 44.08 18.6571C41.2266 18.3921 38.1884 18.8156 35.2107 19.8752C37.7118 15.4976 39.0247 10.6725 38.8913 6.19955C38.8913 6.19884 38.8913 6.19857 38.8913 6.19787C38.8788 5.82133 38.6774 5.47889 38.3524 5.2823C38.0289 5.08607 37.633 5.06614 37.2944 5.22988C33.7261 6.95748 30.3974 9.87101 27.7864 13.5055C27.4357 9.05454 26.106 4.85972 23.9372 1.50511C23.7329 1.18915 23.3834 1 23.0018 1C23.0014 1 23.0014 1 23.001 1C22.6197 1 22.2702 1.18844 22.0659 1.50414C19.8248 4.96307 18.5558 9.17878 18.215 13.5037C15.6094 9.87844 12.2811 6.96607 8.70742 5.22917C8.36737 5.06579 7.96985 5.08571 7.64406 5.28399C7.31863 5.48093 7.1169 5.82257 7.10441 6.19955C6.97096 10.6661 8.28661 15.4915 10.7919 19.8753C7.81355 18.816 4.77606 18.3932 1.92957 18.6564C1.58749 18.6835 1.28534 18.882 1.12196 19.1879C0.957511 19.4951 0.959194 19.8578 1.12807 20.1603C2.92811 23.3475 5.86979 26.1743 9.44942 28.2084ZM3.57305 31.8549C5.59394 30.3971 8.12296 29.4091 10.9088 28.9896C14.033 30.504 17.6842 31.4193 21.1448 31.3329C16.1142 34.3881 8.75878 34.6767 3.57305 31.8549ZM24.8567 31.3322C28.3708 31.4244 32.0082 30.4836 35.0934 28.9896C37.8697 29.4077 40.3937 30.3941 42.4228 31.8549C37.3143 34.6431 29.9531 34.4281 24.8567 31.3322ZM43.9483 19.6753C40.4618 25.8442 32.5272 30.4408 24.9599 30.2826C28.8006 28.1803 32.0233 24.9101 34.3466 21.3208C37.5602 19.9723 40.8821 19.407 43.9483 19.6753ZM37.8142 6.17165C37.8308 6.18184 37.8511 6.20043 37.8525 6.23187C38.123 15.3112 32.267 25.0839 24.4557 29.3674C26.6625 25.5875 28.009 20.4946 27.88 15.1933C30.4863 11.1895 33.986 7.9871 37.8142 6.17165ZM22.938 2.06929C22.9539 2.04459 22.9809 2.03954 23.001 2.03954C23.0209 2.03954 23.0483 2.04459 23.0642 2.06965C28.0394 9.76492 28.207 21.7643 22.9916 29.7229C17.938 21.9919 17.8253 9.96045 22.938 2.06929ZM8.18221 6.17298C8.19239 6.16687 8.2093 6.15908 8.22825 6.15908C8.23676 6.15908 8.24588 6.16076 8.255 6.16519C12.0233 7.99658 15.5225 11.1993 18.1229 15.1936C18.0169 19.9905 19.1055 25.1838 21.5468 29.3674C13.5431 24.9786 7.87838 15.096 8.14298 6.23249C8.14395 6.20238 8.16494 6.18379 8.18221 6.17298ZM11.6558 21.3206C14.0187 24.9727 17.2579 28.2111 21.0431 30.2827C13.4243 30.4479 5.54453 25.8041 2.01839 19.6918C5.25691 19.3923 8.59699 20.0368 11.6558 21.3206Z" fill="#A8A1BD" stroke="#A8A1BD" stroke-width="0.7"/>
</svg>
