<svg width="44" height="35" viewBox="0 0 44 35" fill="none" xmlns="http://www.w3.org/2000/svg">
<path d="M39.8368 14.5593L36.833 3.74622C36.612 2.95748 36.1395 2.26247 35.4874 1.76679C34.8352 1.27112 34.0391 1.00188 33.22 1H10.78C9.96088 1.00188 9.16476 1.27111 8.51262 1.76678C7.86049 2.26246 7.38801 2.95748 7.16697 3.74622L4.16772 14.545C3.2854 14.6851 2.48187 15.135 1.90132 15.814C1.32077 16.493 1.00122 17.3566 1 18.25V28C1.00045 28.3977 1.15864 28.779 1.43984 29.0602C1.72105 29.3414 2.10231 29.4995 2.5 29.5H3.25V32.5C3.25065 33.0965 3.48791 33.6685 3.90973 34.0903C4.33154 34.5121 4.90346 34.7493 5.5 34.75H8.5C9.09654 34.7493 9.66846 34.5121 10.0903 34.0903C10.5121 33.6685 10.7493 33.0965 10.75 32.5V29.5H33.25V32.5C33.2507 33.0965 33.4879 33.6685 33.9097 34.0903C34.3315 34.5121 34.9035 34.7493 35.5 34.75H38.5C39.0965 34.7493 39.6685 34.5121 40.0903 34.0903C40.5121 33.6685 40.7493 33.0965 40.75 32.5V29.5H41.5C41.8977 29.4995 42.279 29.3414 42.5602 29.0602C42.8414 28.779 42.9995 28.3977 43 28V18.25C42.9976 17.3592 42.6779 16.4984 42.0982 15.822C41.5185 15.1456 40.7168 14.698 39.8368 14.5593ZM2.5 21.25H6.25C6.84654 21.2507 7.41846 21.4879 7.84027 21.9097C8.26209 22.3315 8.49935 22.9035 8.5 23.5H2.5V21.25ZM9.25 32.5C9.2498 32.6989 9.17072 32.8895 9.03011 33.0301C8.8895 33.1707 8.69885 33.2498 8.5 33.25H5.5C5.30115 33.2498 5.1105 33.1707 4.96989 33.0301C4.82928 32.8895 4.7502 32.6989 4.75 32.5V29.5H9.25V32.5ZM15.25 28H2.5V25H15.25V28ZM27.25 28H16.75V25H27.25V28ZM41.5 28H40C39.9015 28 39.804 28.0194 39.713 28.057C39.622 28.0947 39.5393 28.15 39.4696 28.2196C39.4 28.2893 39.3447 28.372 39.307 28.463C39.2694 28.554 39.25 28.6515 39.25 28.75V32.5C39.2498 32.6989 39.1707 32.8895 39.0301 33.0301C38.8895 33.1707 38.6989 33.2498 38.5 33.25H35.5C35.3011 33.2498 35.1105 33.1707 34.9699 33.0301C34.8293 32.8895 34.7502 32.6989 34.75 32.5V29.5H37C37.1989 29.5 37.3897 29.421 37.5303 29.2803C37.671 29.1397 37.75 28.9489 37.75 28.75C37.75 28.5511 37.671 28.3603 37.5303 28.2197C37.3897 28.079 37.1989 28 37 28H28.75V25H41.5V28ZM41.5 23.5H35.5C35.5007 22.9035 35.7379 22.3315 36.1597 21.9097C36.5815 21.4879 37.1535 21.2507 37.75 21.25H41.5V23.5ZM41.5 19.75H37.75C36.7558 19.7512 35.8026 20.1466 35.0996 20.8496C34.3966 21.5526 34.0012 22.5058 34 23.5H10C9.99883 22.5058 9.60337 21.5526 8.90036 20.8496C8.19735 20.1466 7.2442 19.7512 6.25 19.75H2.5V18.25C2.50065 17.6535 2.73791 17.0815 3.15973 16.6597C3.58154 16.2379 4.15346 16.0007 4.75 16C4.91398 16.0001 5.07345 15.9464 5.20402 15.8472C5.33458 15.7479 5.42903 15.6087 5.4729 15.4507L8.61279 4.14759C8.74518 3.67434 9.02853 3.25728 9.41973 2.95987C9.81094 2.66247 10.2886 2.50099 10.78 2.5H33.22C33.7114 2.50098 34.1891 2.66246 34.5803 2.95987C34.9715 3.25727 35.2549 3.67433 35.3872 4.14759L38.263 14.5H7.75C7.55109 14.5 7.36032 14.579 7.21967 14.7197C7.07902 14.8603 7 15.0511 7 15.25C7 15.4489 7.07902 15.6397 7.21967 15.7803C7.36032 15.921 7.55109 16 7.75 16H39.25C39.8465 16.0007 40.4185 16.2379 40.8403 16.6597C41.2621 17.0815 41.4993 17.6535 41.5 18.25V19.75Z" fill="#A8A1BD" stroke="#A8A1BD" stroke-width="0.5"/>
</svg>
