<svg width="49" height="42" viewBox="0 0 49 42" fill="none" xmlns="http://www.w3.org/2000/svg">
<path d="M44.5938 14.4911H35.8277C35.3043 14.4911 34.88 14.915 34.88 15.4379V39.1065H29.9046V29.284C29.9046 28.7612 29.4803 28.3373 28.9569 28.3373H20.4277C19.9043 28.3373 19.48 28.7612 19.48 29.284V39.1065H14.5046V4.78698C14.5046 3.74296 15.3549 2.89349 16.4 2.89349H32.9846C34.0297 2.89349 34.88 3.74296 34.88 4.78698V10.0533C34.88 10.5761 35.3043 11 35.8277 11C36.3511 11 36.7754 10.5761 36.7754 10.0533V4.78698C36.7754 2.69882 35.0749 1 32.9846 1H16.4C14.3097 1 12.6092 2.69882 12.6092 4.78698V39.1065H4.79077C3.7457 39.1065 2.89538 38.257 2.89538 37.213V18.2781C2.89538 17.2341 3.7457 16.3846 4.79077 16.3846H8.10769C8.63106 16.3846 9.05538 15.9607 9.05538 15.4379C9.05538 14.915 8.63106 14.4911 8.10769 14.4911H4.79077C2.70052 14.4911 1 16.1899 1 18.2781V37.213C1 39.3012 2.70052 41 4.79077 41H35.8277C36.3511 41 36.7754 40.5761 36.7754 40.0533V16.3846H44.5938C45.6389 16.3846 46.4892 17.2341 46.4892 18.2781V37.213C46.4892 38.257 45.6389 39.1065 44.5938 39.1065H40.5662C40.0428 39.1065 39.6185 39.5304 39.6185 40.0533C39.6185 40.5761 40.0428 41 40.5662 41H44.5938C46.6841 41 48.3846 39.3012 48.3846 37.213V18.2781C48.3846 16.1899 46.6841 14.4911 44.5938 14.4911ZM21.3754 30.2308H28.0092V39.1065H21.3754V30.2308ZM7.75231 23.0118C8.27567 23.0118 8.7 23.4357 8.7 23.9586V27.9822C8.7 28.5051 8.27567 28.929 7.75231 28.929C7.22894 28.929 6.80462 28.5051 6.80462 27.9822V23.9586C6.80462 23.4357 7.22894 23.0118 7.75231 23.0118ZM41.6323 28.929C41.1089 28.929 40.6846 28.5051 40.6846 27.9822V23.9586C40.6846 23.4357 41.1089 23.0118 41.6323 23.0118C42.1557 23.0118 42.58 23.4357 42.58 23.9586V27.9822C42.58 28.5051 42.1557 28.929 41.6323 28.929ZM30.1415 12.4793H19.2431C18.7197 12.4793 18.2954 12.0554 18.2954 11.5325C18.2954 11.0097 18.7197 10.5858 19.2431 10.5858H30.1415C30.6649 10.5858 31.0892 11.0097 31.0892 11.5325C31.0892 12.0554 30.6649 12.4793 30.1415 12.4793ZM28.4831 19.6982C29.0064 19.6982 29.4308 20.1221 29.4308 20.645C29.4308 21.1678 29.0064 21.5917 28.4831 21.5917H20.9015C20.3782 21.5917 19.9538 21.1678 19.9538 20.645C19.9538 20.1221 20.3782 19.6982 20.9015 19.6982H28.4831Z" fill="#A8A1BD" stroke="#A8A1BD" stroke-width="0.5"/>
</svg>
