<svg width="40" height="42" viewBox="0 0 40 42" fill="none" xmlns="http://www.w3.org/2000/svg">
<path d="M31.0631 17.6957C31.5196 17.6656 31.9228 18.0033 31.9587 18.4619L32.7847 29.0556C32.8205 29.5142 32.4775 29.9154 32.0185 29.9512C31.9965 29.9528 31.9745 29.9536 31.953 29.9536C31.5221 29.9536 31.1571 29.622 31.1229 29.185L30.2969 18.5913C30.2611 18.1327 30.6041 17.7315 31.0631 17.6957Z" fill="#A8A1BD" stroke="#A8A1BD" stroke-width="0.4"/>
<path d="M25.0471 17.6931C25.5073 17.6931 25.8805 18.0662 25.8805 18.5264V29.1201C25.8805 29.5803 25.5073 29.9535 25.0471 29.9535C24.5869 29.9535 24.2138 29.5803 24.2138 29.1201V18.5264C24.2138 18.0662 24.5869 17.6931 25.0471 17.6931Z" fill="#A8A1BD" stroke="#A8A1BD" stroke-width="0.4"/>
<path d="M19.0317 17.6953C19.4907 17.7311 19.8337 18.1323 19.7979 18.5909L18.9719 29.1846C18.9377 29.6216 18.5727 29.9532 18.1418 29.9532C18.1202 29.9532 18.0983 29.9524 18.0763 29.9508C17.6173 29.915 17.2743 29.5138 17.3101 29.0552L18.1361 18.4615C18.1723 18.0025 18.5776 17.6567 19.0317 17.6953Z" fill="#A8A1BD" stroke="#A8A1BD" stroke-width="0.4"/>
<path d="M1.02444 21.7906C1.02444 15.0456 6.32046 9.514 12.9771 9.09448L13.0418 8.23094C12.7727 8.10678 12.5763 7.8487 12.5556 7.53483C12.5467 7.40096 12.5381 7.24959 12.5381 7.10718C12.5381 5.95199 13.0882 3.42716 14.4009 2.55273C15.714 1.64046 17.4921 1.56559 18.841 2.29313C19.4501 1.87606 20.1704 1.65145 20.9252 1.65145C21.413 1.65145 21.894 1.74707 22.294 1.91878C22.7835 2.11247 23.2217 2.4091 23.5814 2.78507C24.3785 2.21867 25.3343 1.89437 26.33 1.91512C27.132 1.32308 28.1082 1 29.1149 1C30.6243 1 32.025 1.74336 32.7912 2.77246L32.8661 2.86971C35.2355 2.01286 37.5637 3.52519 37.5637 7.20036C37.5637 7.31592 37.5552 7.43148 37.5454 7.54704C37.5196 7.85847 37.3217 8.1138 37.0526 8.2349L38.9822 33.9765C39.1165 35.7831 38.4862 37.5808 37.2537 38.9085C36.0196 40.2379 34.2711 41 32.4571 41H17.637C15.823 41 14.0746 40.2379 12.8404 38.9085C11.6689 37.6465 11.0499 35.9594 11.1057 34.2468C5.31003 33.0023 1.02444 27.7839 1.02444 21.7906ZM12.5783 14.4129C8.98505 14.9839 6.28771 18.0585 6.28771 21.7906C6.28771 25.0672 8.42923 27.9174 11.4926 28.8957L12.5783 14.4129ZM33.0476 4.6381C32.8408 4.78499 32.5784 4.82935 32.3351 4.75895C32.0917 4.68896 31.8932 4.51156 31.7959 4.27759C31.7764 4.22998 31.7499 4.19173 31.7027 4.11564C31.6194 4.04566 30.9273 2.66667 29.1149 2.66667C28.3906 2.66667 27.6911 2.92546 27.1459 3.39543C26.9778 3.53988 26.7622 3.60986 26.5379 3.59481C25.6114 3.52645 24.6894 3.88411 24.0615 4.5734C23.8784 4.77482 23.6054 4.87288 23.3377 4.8387C23.0675 4.8033 22.8315 4.6381 22.7062 4.3964C22.4856 3.97241 22.1219 3.64282 21.6592 3.45972C21.4431 3.36694 21.1892 3.31812 20.9252 3.31812C20.3828 3.31812 19.8729 3.52889 19.4904 3.91138C19.195 4.20679 18.7246 4.23812 18.393 3.98258C17.543 3.32829 16.2861 3.27214 15.3384 3.9305C14.8772 4.23797 14.3596 5.56075 14.2335 6.64453H18.6282C19.8286 6.64453 20.8051 7.62109 20.8051 8.82145V14.3105C20.8051 15.5567 22.5548 15.6152 22.5548 14.409V8.82145C22.5548 7.62109 23.5314 6.64453 24.7317 6.64453H35.872C35.6498 4.21317 34.0663 3.91569 33.0476 4.6381ZM14.062 37.7745C14.9954 38.7795 16.2649 39.3333 17.637 39.3333H32.4571C33.8292 39.3333 35.0987 38.7795 36.0322 37.7745C36.9644 36.7707 37.4217 35.4657 37.3204 34.1006L35.3873 8.31283H24.7329C24.4575 8.31283 24.2247 8.54557 24.2247 8.82104V14.4049C24.2247 17.7666 19.138 17.7932 19.138 14.3195V8.82104C19.138 8.54557 18.9053 8.31283 18.6294 8.31283H14.7068C14.7005 8.39655 12.6641 35.4818 12.7737 34.1002C12.6724 35.4657 13.1297 36.7707 14.062 37.7745ZM11.2145 32.5751L11.3618 30.6016C7.41442 29.5266 4.62104 25.9333 4.62104 21.7906C4.62104 17.0905 8.11591 13.2347 12.7062 12.7065L12.8522 10.7587C7.17231 11.2332 2.69111 16.0049 2.69111 21.7906C2.69111 26.9192 6.29666 31.4049 11.2145 32.5751Z" fill="#A8A1BD" stroke="#A8A1BD" stroke-width="0.4"/>
</svg>
