<svg width="41" height="41" fill="none" viewBox="0 0 41 41" xmlns="http://www.w3.org/2000/svg"><circle cx="20.116" cy="20.116" r="20.116" fill="#3F04FE"/><path fill="#fff" d="M29.09 20.91a.909.909 0 00-.908.908v3.83a2.536 2.536 0 01-2.534 2.534H14.352a2.537 2.537 0 01-2.534-2.534v-3.83a.909.909 0 00-1.818 0v3.83A4.357 4.357 0 0014.352 30h11.296A4.356 4.356 0 0030 25.648v-3.83a.909.909 0 00-.91-.909z"/><path fill="#fff" d="M15.187 17.006l3.902-3.903v11.442a.91.91 0 001.818 0V13.103l3.903 3.903a.909.909 0 001.286-1.285l-5.455-5.455a.909.909 0 00-1.285 0L13.9 15.721a.909.909 0 001.286 1.285z"/></svg>