<svg width="58" height="26" viewBox="0 0 58 26" fill="none" xmlns="http://www.w3.org/2000/svg">
<path d="M48.5615 4.97614V13.2766C50.2475 13.2766 51.609 11.4177 51.609 9.12582C51.609 6.8339 50.2444 4.97614 48.5615 4.97614Z" fill="#3F04FE"/>
<path d="M9.04111 4.92633V13.2246C7.3551 13.2246 5.99365 11.3658 5.99365 9.07496C5.99365 6.7841 7.35721 4.92738 9.04111 4.92633Z" fill="#3F04FE"/>
<path d="M57.6488 19.4894C57.6488 23.0722 44.7434 25.97 28.8244 25.97C12.9053 25.97 0 23.069 0 19.4894C0 15.9098 12.9053 13.0131 28.8244 13.0131C44.7434 13.0131 57.6488 15.9098 57.6488 19.4894Z" fill="#3F04FE"/>
<path d="M54.1183 17.9758C54.1183 20.9073 42.7936 23.2835 28.8282 23.2835C14.8628 23.2835 3.53809 20.9073 3.53809 17.9758C3.53809 15.0442 14.8638 12.668 28.8334 12.668C42.8031 12.668 54.1183 15.0442 54.1183 17.9758Z" fill="white"/>
<path d="M43.6335 20.0593H14.023C11.6415 20.0593 9.70264 18.0413 9.70264 15.5618V4.49742C9.70264 2.01794 11.6405 0 14.023 0H43.6335C46.015 0 47.9539 2.01794 47.9539 4.49742V15.5618C47.9539 18.0413 46.0171 20.0593 43.6335 20.0593Z" fill="#3F04FE"/>
<path d="M43.6515 0.692566H14.0411C12.0231 0.692566 10.3877 2.39649 10.3877 4.49767V15.5621C10.3877 17.6643 12.0231 19.3672 14.0411 19.3672H14.3393V19.3556C18.7029 18.639 23.6292 18.2355 28.8452 18.2355C34.0613 18.2355 38.9897 18.639 43.3533 19.3556V19.3672H43.6505C45.6684 19.3672 47.3049 17.6643 47.3049 15.5621V4.49767C47.306 2.39649 45.6695 0.692566 43.6515 0.692566Z" fill="white"/>
<path d="M14.5967 6.76501H15.9813L17.1162 11.9748L18.4271 6.76501H19.8676L21.1036 11.9463L22.249 6.76501H23.6421L21.8423 13.4743H20.3196L19.1099 8.69338L17.8454 13.47L16.3312 13.4795L14.5967 6.76501Z" fill="#3F04FE"/>
<path d="M26.8539 10.8978H25.7749V13.4743H24.4819V6.76501H26.8539C28.4051 6.76501 29.1806 7.67862 29.1806 8.84091C29.1806 9.85989 28.5157 10.8978 26.8539 10.8978ZM26.7991 9.81247C27.5283 9.81247 27.8529 9.43733 27.8529 8.84091C27.8529 8.22657 27.5294 7.86092 26.7991 7.86092H25.7749V9.81247H26.7991Z" fill="#3F04FE"/>
<path d="M36.7027 6.76501H38.0726L35.7101 13.4743H34.1494L31.7827 6.76501H33.1673L34.9398 12.1002L36.7027 6.76501Z" fill="#3F04FE"/>
<path d="M41.2724 6.76501C42.8224 6.76501 43.598 7.69759 43.598 8.82194C43.598 9.63966 43.1649 10.4658 42.1301 10.7545L43.6718 13.4743H42.1765L40.755 10.8599H40.1459V13.4743H38.854V6.76501H41.2724ZM41.226 7.87989H40.1459V9.85251H41.226C41.9457 9.85251 42.2692 9.45841 42.2692 8.85355C42.2692 8.2487 41.9478 7.87989 41.226 7.87989Z" fill="#3F04FE"/>
</svg>
